<?xml version="1.0" encoding="utf-8"?>
<svg width="128px" height="140.024px" xmlns="http://www.w3.org/2000/svg">
  <g clip-rule="evenodd" transform="translate(-10.112 -12.623)">
    <g fill-rule="evenodd">
      <path d="M157.217 63.487c1.448 1.03 3.093 1.827 4.925 2.231.13.025.23.14.23.278v4.14c0 .09.004.172.01.247v.003c.009.08.022.163.038.247h-.001a.24.24 0 0 1 .005.046c.025.82-.871 1.901-2.31 3.02-1.48 1.15-3.55 2.372-5.77 3.4a25.043 25.043 0 0 1-3.89 1.441l-.022.008c-1.215.331-2.402.533-3.504.566-.928.028-1.778-.066-2.49-.314-.677-.236-1.231-.612-1.61-1.15-.69-.98-1.004-2.483-.791-4.634.189-1.909.794-4.345 1.924-7.399l.003-.008a2.548 2.548 0 0 0 .017-1.853l-.005-.01c-.025-.064-.931-2.349-1.218-5.67a.288.288 0 0 1 .054-.193l.164-.222c.02-.03 2.416-3.745 7.279-3.163v.001c.1.012.19.077.229.176.297.745.663 1.53 1.097 2.32.4.732.858 1.465 1.368 2.172 1.145 1.588 2.572 3.113 4.268 4.32zm-20.15 8.775c-.242 2.301-.083 4.22.392 5.8a.283.283 0 0 1-.175.346l-8.714 3.177a.282.282 0 0 1-.343-.403 503.536 503.536 0 0 0 4.282-7.875c1.852-3.47 3.766-7.122 5.426-10.318a.282.282 0 0 1 .526.062 28.564 28.564 0 0 0 .422 1.506h-.001a.275.275 0 0 1-.003.177c-1.001 2.87-1.583 5.367-1.811 7.528zm94.285 6.343a47 47 0 0 1 .14 1.055l.007.033c.01.052.019.105.025.16l.004.022c.005.048.01.101.013.157v.001l.003.043v.015c.064.545.124 1.141.179 1.788.056.653.105 1.342.145 2.063l.002.017a124.632 124.632 0 0 0 2.48 14.611c.99 4.248 2.245 8.505 3.774 12.22 1.279 3.106 2.71 5.79 4.269 7.635 1.41 1.672 2.937 2.67 4.563 2.7 1.21.022 2.467-1.03 3.71-2.84 1.338-1.947 2.685-4.786 3.948-8.093.85-2.22 1.632-4.64 2.332-7.157A106.482 106.482 0 0 0 258.842 95a105.84 105.84 0 0 0 1.24-7.83c.294-2.479.469-4.83.508-6.946.044-2.309 0-4.254-.146-5.628-.146-1.378-.427-2.239-.861-2.405-1.826-.698-4.654-2.366-8.061-4.658-3.734-2.513-8.156-5.772-12.718-9.333a367.808 367.808 0 0 1-14.046-11.538c-4.23-3.659-8.061-7.167-10.954-10.089-2.612-2.638-5.358-4.649-8.43-6.052-3.068-1.403-6.457-2.196-10.353-2.396-4.091-.21-8.755.21-14.188 1.24-5.423 1.028-11.615 2.665-18.774 4.891-5.98 1.86-10.187 4.375-13.112 7.155-2.938 2.792-4.588 5.851-5.45 8.786a.283.283 0 0 0 .392.335 12.263 12.263 0 0 1 2.613-.893c.962-.21 2.012-.32 3.146-.28a.282.282 0 0 0 .255-.146c.814-1.449 3.036-2.764 5.88-3.819 3.25-1.206 7.297-2.059 10.998-2.38a45.883 45.883 0 0 1 2.632-.156 34.912 34.912 0 0 1 2.407.011c.847.036 1.642.112 2.36.231a9.951 9.951 0 0 1 1.82.463c1.099.41 1.916.974 2.394 1.706.447.686.602 1.534.414 2.557-.204 1.118-.503 2.738-.982 4.555-.476 1.807-1.131 3.806-2.048 5.69-.853 1.75-1.915 3.39-3.248 4.72-1.325 1.32-2.921 2.335-4.845 2.845a.284.284 0 0 0-.211.274v3.625c0 .055.016.106.042.15.473.868 1.276 1.652 2.317 2.315 1.059.674 2.366 1.224 3.822 1.608.847.224 1.739.387 2.658.482.894.093 1.814.123 2.745.081a17.888 17.888 0 0 0 2.88-.362c.923-.193 1.84-.463 2.736-.814a15.224 15.224 0 0 0 6.152-4.414c1.558-1.856 2.815-4.229 3.598-7.193a2.536 2.536 0 0 1 1.179-1.55 2.538 2.538 0 0 1 1.93-.264c.68.18 1.224.616 1.55 1.178l.002.001h-.001c.329.563.442 1.251.264 1.93a29.858 29.858 0 0 1-.363 1.256.282.282 0 0 0 .338.358l8.31-1.523a.28.28 0 0 0 .23-.247c.728-6.539-6.674-8.1-6.795-8.126a2.54 2.54 0 0 1-1.607-1.103 2.54 2.54 0 0 1-.355-1.917 2.545 2.545 0 0 1 3.02-1.963l.012.002c.33.07 11.112 2.41 10.946 12.012a.282.282 0 0 0 .333.283l8.589-1.574a.283.283 0 0 0 .209-.39l-2.708-6.29a2.542 2.542 0 0 1-.026-1.952 2.541 2.541 0 0 1 1.362-1.397 2.544 2.544 0 0 1 3.347 1.336l3.62 8.407a.285.285 0 0 0 .17.157c.903.342 1.68.888 2.342 1.583.735.771 1.332 1.725 1.805 2.786.346.777.616 1.616.818 2.473a18.4 18.4 0 0 1 .44 5.329 13.48 13.48 0 0 1-.32 2.235c-.168.697-.404 1.31-.703 1.821-.286.49-.634.886-1.035 1.172a.28.28 0 0 0-.112.29c.043.272.089.573.137.905zm.147 1.088l-.002-.013zm.37 4.265l-.001-.002zm-49.461-38.686a2.534 2.534 0 0 1-1.546-1.184 2.534 2.534 0 0 1-.257-1.932 2.534 2.534 0 0 1 1.184-1.546l.01-.006c.292-.169 8.434-4.794 16.656.522a2.542 2.542 0 1 1-2.77 4.266c-5.695-3.683-11.296-.404-11.344-.376l-.005.003a2.546 2.546 0 0 1-1.928.253zM75.248 215.428c.535-.393 25.178-18.357 40.179 3.748a172.696 172.696 0 0 1 8.024 13.016c2.624 4.715 4.777 9.13 6.5 13.092 1.964 4.516 3.498 8.248 4.567 11.002 1.357 3.492 1.924 5.521 1.688 5.69-.145.101-.271.097-.48.093a3.438 3.438 0 0 0-.685.043c-2.01.328-4.685.764-6.945 2.15-2.234 1.371-4.082 3.693-4.505 7.805a.283.283 0 0 1-.284.277h-17.098a.227.227 0 0 1-.063.008l-.09.002h-.004c-8.17.291-15.308-.422-21.457-1.963-6.545-1.64-11.975-4.219-16.338-7.52-3.368-2.55-6.106-5.54-8.236-8.866-2.208-3.45-3.763-7.266-4.688-11.326-.92-4.039-1.226-8.33-.942-12.764.287-4.475 1.175-9.098 2.637-13.75 2.666-8.48 7.236-17.045 13.558-25.027 5.98-7.549 13.527-14.578 22.513-20.52 9.75-6.45 16.633-14.392 21.468-22.077 4.834-7.68 7.626-15.106 9.2-20.532a.286.286 0 0 1 .16-.194c.143-.064.31 0 .375.142 3.015 6.641 6.395 13.78 9.61 19.918 3.213 6.13 6.267 11.271 8.638 13.94a36.092 36.092 0 0 1 3.878 5.28 42.72 42.72 0 0 1 3.079 6.191 47.913 47.913 0 0 1 2.208 7.025c.679 2.941.916 5.29.916 6.518 0 1.03.04 2.39.22 3.848.18 1.453.499 3.006 1.055 4.428.687 1.756 1.675 3.295 3.09 4.3 1.409 1 3.256 1.474 5.67 1.112 1.645-.246 2.888-.844 3.835-1.635.948-.793 1.606-1.789 2.076-2.828a.285.285 0 0 1 .491-.047l1.114 1.578h-.001l.01.016c4.474 6.322 11.292 15.96 12.018 22.557.223 2.03.712 3.807 1.387 5.316.729 1.63 1.675 2.945 2.736 3.924a8.814 8.814 0 0 0 1.925 1.363c.68.354 1.39.6 2.108.734.764.143 1.532.16 2.287.05a6.968 6.968 0 0 0 2.178-.706c.93-.479 1.795-1.18 2.546-2.107.714-.883 1.327-1.97 1.797-3.27.33-.91.593-1.973.805-3.156.212-1.189.372-2.49.497-3.875a.28.28 0 0 1 .103-.217c4.172-3.46 8.243-14.76 12.05-28.947 3.82-14.242 7.365-31.365 10.48-46.433l1.302-6.279a.282.282 0 0 1 .528-.079c12.922 24.426 14.857 46.448 12.362 64.967-2.495 18.512-9.416 33.508-14.22 43.912l-.006.016c-1.916 4.15-3.508 7.6-4.417 10.375-.833 2.543-1.146 4.621-.742 6.22.394 1.55 1.488 2.66 3.479 3.312 1.667.545 2.924 1.13 3.85 1.723 1.08.691 1.722 1.404 2.047 2.094.104.22.169.438.204.652l.003.014c.038.238.037.471.007.69a2.82 2.82 0 0 1-.172.645c-.087.221-.2.43-.325.62-.02.026.012.073.029.103a.365.365 0 0 1 .078.221c0 .2-.091.307-.336.307h-39.855a.283.283 0 0 1-.283-.283v-26.219c0-.115.07-.223.186-.266 10.92-4.029 17.779-12.088 18.015-12.367l.02-.023a2.543 2.543 0 0 0-2.143-4.176 2.53 2.53 0 0 0-1.73.875l-.005.008c-.136.16-9.51 11.277-23.493 12.695a2.532 2.532 0 0 0-1.717.918 2.544 2.544 0 0 0 2.216 4.144 34.308 34.308 0 0 0 3.196-.48.284.284 0 0 1 .352.275v24.615a.284.284 0 0 1-.284.283h-52.118a.283.283 0 0 1-.273-.356c.514-1.945 1.709-3.072 3.066-3.758 1.33-.672 2.804-.912 3.933-1.096.683-.11 1.294-.209 1.85-.36.533-.146 1.006-.339 1.427-.636.904-.639 1.085-3.65.197-8.31-.74-3.892-2.244-8.89-4.718-14.579-1.775-4.08-3.994-8.629-6.7-13.49a179.245 179.245 0 0 0-8.284-13.434c-17.985-26.504-46.817-5.434-47.372-5.025l-.013.01a2.543 2.543 0 0 0-.568 3.556 2.55 2.55 0 0 0 3.549.576l.018-.014zm129.59 17.781l.008-.006zM51.442 186.502l-.002-.008c-1.34-7.029-.735-16.37 5.056-27.938a.28.28 0 0 0-.126-.377.278.278 0 0 0-.304.033 46.747 46.747 0 0 0-1.85 1.58 50.344 50.344 0 0 0-9.925 12.274c-2.154 3.75-3.834 7.816-4.89 12.094a42.241 42.241 0 0 0-1.07 14.102c.426 4.525 1.608 9.146 3.689 13.758a49.665 49.665 0 0 0 3.256 6.04 57.049 57.049 0 0 0 4.21 5.813.285.285 0 0 0 .398.04.286.286 0 0 0 .099-.175c.248-1.506.555-3.018.918-4.533a68.81 68.81 0 0 1 1.264-4.557 74.323 74.323 0 0 1 2.57-6.934 81.41 81.41 0 0 1 3.327-6.859.28.28 0 0 0-.033-.318c-1.972-2.307-5.247-7.018-6.587-14.035z" fill="#f7d2a1"/>
      <path d="M164.927 60.907l-.231.01h-.017a7.014 7.014 0 0 1-.56-.034 8.284 8.284 0 0 1-.574-.079c-1.25-.217-2.396-.757-3.42-1.488-1.188-.85-2.215-1.958-3.05-3.117a17.6 17.6 0 0 1-1.695-2.876c-.466-1.01-.722-1.88-.75-2.446a.287.287 0 0 1 .012-.108c.16-.533 1.707-1.053 3.899-1.493 2.422-.485 5.68-.919 8.679-1.18a44.38 44.38 0 0 1 2.372-.146 27.936 27.936 0 0 1 2.029.001c.316.014.618.032.9.058.272.024.523.054.752.09l.02.003c.153.03.253.18.223.332a42.077 42.077 0 0 1-.86 3.537c-.377 1.284-.853 2.621-1.462 3.87-.641 1.315-1.438 2.54-2.431 3.456-1.01.932-2.22 1.545-3.665 1.616h-.021zm8.347-12.809l.009.001z" fill="#6c4922"/>
      <path d="M175.764 79.15c1.146.12 2.326.157 3.515.104a23.271 23.271 0 0 0 3.728-.468 22.049 22.049 0 0 0 3.523-1.047 20.641 20.641 0 0 0 5.35-3.073 20.264 20.264 0 0 0 4.15-4.506h.002a.279.279 0 0 1 .183-.12l28.827-5.283c.545-.1 1.016.031 1.414.318.43.31.77.804 1.026 1.381a8.78 8.78 0 0 1 .526 1.634c.143.63.234 1.29.28 1.938.04.544.05 1.071.032 1.557a9.028 9.028 0 0 1-.141 1.358.282.282 0 0 1-.207.221l-.21.054-.024.007-.248.06-.104.032-.012.003-6.47 1.683-.025.007-.09.02-.233.064-.006.001-104.19 27.102h-.001l-.047.012-.011.003-.25.065a.28.28 0 0 1-.186-.003c-.724-.267-1.291-.61-1.727-1.007a3.706 3.706 0 0 1-1.011-1.495 5.267 5.267 0 0 1-.261-1.08v-.002a7.473 7.473 0 0 1-.06-1.229c.014-.416.058-.839.126-1.258.075-.466.176-.923.293-1.359a3.85 3.85 0 0 0 .096-1.704l-.005-.025c-.052-.337-.08-.523.202-.626l27.02-9.85.007-.003a.283.283 0 0 1 .253.03c.84.556 1.78.95 2.792 1.2l.012.001c1.083.266 2.25.37 3.467.332 1.45-.044 2.98-.292 4.52-.697h.002a29.76 29.76 0 0 0 4.888-1.777 29.145 29.145 0 0 0 4.979-2.932c1.499-1.1 2.81-2.303 3.823-3.527.1-.12.279-.136.399-.037a15.42 15.42 0 0 0 3.027 1.946 19.362 19.362 0 0 0 3.653 1.357c1.089.286 2.23.496 3.404.618zm45.142-4.148l-.014.003zm2.352 15.333c-.584 4.908-1.442 10.681-2.448 16.717a696.272 696.272 0 0 1-4.875 26.071l-.002.01c-1.663 8.016-3.242 14.777-4.353 18.417-.87 2.85-1.512 5.637-2.035 8.36-.524 2.73-.93 5.388-1.326 7.985-.485 3.184-.957 6.283-1.62 9.346-.66 3.057-1.51 6.078-2.751 9.12-1.146 2.808-1.798 6.456-2.198 10.411-.397 3.936-.548 8.176-.688 12.188l-.04 1.121a.283.283 0 0 0 .542.123l.003-.008c2.384-5.447 5.226-16.148 8.133-28.686 2.902-12.52 5.877-26.898 8.523-39.695.919-4.439 1.799-8.696 2.643-12.687.83-3.934 1.61-7.53 2.322-10.63 1.81-7.88 2.83-14.59 3.36-20.179.528-5.592.563-10.063.4-13.465l-.001-.018a99.34 99.34 0 0 1-.233-2.369 77.828 77.828 0 0 1-.156-2.156v-.005l-.002-.058-.003-.028-.147-1.043a.281.281 0 0 0-.318-.24c-.016 0-.03.004-.044.008l-1.66.432a.284.284 0 0 0-.211.29c.013 2.55-.29 6.253-.815 10.668z" fill="#d08a28"/>
      <path d="M187.685 106.338c-.995-2.451-.533-3.852.017-5.497l.005-.019.294-.89h.001a.282.282 0 0 1 .264-.194 9.434 9.434 0 0 1 1.745.134c.591.099 1.189.254 1.79.462 1.485.514 2.959 1.343 4.325 2.453a17.726 17.726 0 0 1 3.566 3.954l.003.005a17.788 17.788 0 0 1 2.269 4.819c.496 1.691.691 3.373.592 4.946a10.988 10.988 0 0 1-.306 2 9.202 9.202 0 0 1-.647 1.794.294.294 0 0 1-.08.099c-.079.062-.168.121-.266.175s-.202.105-.312.149a4.197 4.197 0 0 1-1.278.285 5.869 5.869 0 0 1-1.443-.086 6.978 6.978 0 0 1-1.81-.597 8.312 8.312 0 0 1-1.684-1.097 10.525 10.525 0 0 1-1.903-2.112c-.541-.783-1.04-1.7-1.477-2.764l-.011-.023a2.534 2.534 0 0 0-3.307-1.394 2.533 2.533 0 0 0-1.394 3.307h-.001a19.754 19.754 0 0 0 2.062 3.833 15.588 15.588 0 0 0 2.683 2.975.282.282 0 0 1-.281.485 13.245 13.245 0 0 1-.864-.385l-.019-.008c-.615-.3-1.225-.653-1.818-1.055a16.056 16.056 0 0 1-1.688-1.319 17.335 17.335 0 0 1-1.56-1.595 18.785 18.785 0 0 1-1.38-1.822 17.794 17.794 0 0 1-2.27-4.822c-.497-1.693-.692-3.375-.594-4.948.032-.501.095-.99.187-1.461.09-.459.209-.908.357-1.339a.283.283 0 0 1 .556.034c.062.501.166 1.03.32 1.594.154.565.362 1.177.632 1.841a2.544 2.544 0 0 0 3.318 1.406 2.544 2.544 0 0 0 1.391-1.367 2.543 2.543 0 0 0 .016-1.956zm-9.51 51.461c1.067-1.402 2.306-2.555 3.632-3.408a11.252 11.252 0 0 1 1.788-.938 9.224 9.224 0 0 1 1.8-.537.27.27 0 0 1 .149 0c.087.023.182.059.283.104l.019.008c.103.047.208.104.314.168.345.211.682.5.988.859.29.34.557.742.782 1.203.263.533.466 1.141.589 1.809.113.621.156 1.295.113 2.014a10.446 10.446 0 0 1-.573 2.783 14.716 14.716 0 0 1-1.366 2.852 2.548 2.548 0 0 0 .847 3.498 2.53 2.53 0 0 0 1.924.301 2.527 2.527 0 0 0 1.573-1.148 19.579 19.579 0 0 0 1.862-3.93c.464-1.367.721-2.688.807-3.934h.001a.284.284 0 0 1 .212-.256.284.284 0 0 1 .343.203c.374 1.449.517 3.039.405 4.691a17.845 17.845 0 0 1-1.049 4.889 17.766 17.766 0 0 1-2.535 4.678c-1.067 1.4-2.306 2.555-3.632 3.406-.422.271-.854.512-1.291.719-.431.203-.866.373-1.305.51a.283.283 0 0 1-.294-.47c.367-.348.733-.746 1.098-1.207.366-.463.737-.994 1.113-1.607a2.544 2.544 0 1 0-4.344-2.651c-.689 1.123-1.393 1.801-2.135 2.268-.732.461-1.487.705-2.304.969l-.013.004-.889.293a.287.287 0 0 1-.313-.098 9.596 9.596 0 0 1-.924-1.486c-.27-.535-.5-1.111-.688-1.715l-.027-.084-.009-.025c-.448-1.494-.643-3.158-.553-4.9a17.8 17.8 0 0 1 1.064-5.152 17.797 17.797 0 0 1 2.538-4.683zm-20.504-36.044c.359.609.664 1.299.892 2.068.277.933.444 1.982.465 3.146a16.146 16.146 0 0 1-.335 3.48l-.003.021c-.138.688.017 1.367.377 1.907s.928.945 1.615 1.082a2.537 2.537 0 0 0 2.988-1.992h.001c.343-1.695.476-3.279.439-4.747a16.657 16.657 0 0 0-.665-4.332 14.22 14.22 0 0 0-.475-1.357h.001a.28.28 0 0 1 .074-.317.28.28 0 0 1 .398.024c.468.528.902 1.107 1.297 1.729.393.618.751 1.286 1.07 1.997.26.581.493 1.187.694 1.812a18.753 18.753 0 0 1 .805 3.902c.066.679.102 1.374.102 2.079a19.71 19.71 0 0 1-.865 5.841c-.579 1.865-1.431 3.534-2.486 4.921-.469.617-.979 1.177-1.521 1.669s-1.115.917-1.715 1.267h-.001a.283.283 0 0 1-.38-.397c.358-.561.686-1.2.973-1.949.29-.753.542-1.621.749-2.635a2.539 2.539 0 0 0-1.983-2.999c-.687-.14-1.367.012-1.91.371s-.949.925-1.089 1.612c-.596 2.912-1.91 3.935-3.46 5.14l-.004.002c-.296.23-.601.469-.923.732a.28.28 0 0 1-.337.031 10.53 10.53 0 0 1-1.631-1.238 12.407 12.407 0 0 1-1.453-1.606c-1.053-1.384-1.902-3.05-2.482-4.91l-.004-.012a19.71 19.71 0 0 1-.865-5.841c0-.888.058-1.762.167-2.615a19.07 19.07 0 0 1 .493-2.513 17.81 17.81 0 0 1 .802-2.338c.319-.754.684-1.464 1.087-2.122.517-.843 1.1-1.606 1.736-2.273a10.765 10.765 0 0 1 2.041-1.686l.017-.011.272-.165v.001a.295.295 0 0 1 .11-.039c.135-.018.279-.022.43-.014.147.007.304.028.467.061.449.09.921.271 1.39.536.444.252.889.583 1.313.99a7.94 7.94 0 0 1 1.322 1.687z" fill="#d1111b"/>
      <path d="M181.294 122.487a22.832 22.832 0 0 0 2.029 2.069c.73.654 1.489 1.248 2.268 1.777.782.532 1.583.999 2.395 1.395a17.64 17.64 0 0 0 2.822 1.093l.012.003c.954.275 1.919.461 2.879.553.977.093 1.947.088 2.898-.021a12.405 12.405 0 0 0 4.085-1.197 12.588 12.588 0 0 0 1.271-.739 12.161 12.161 0 0 0 3.989-4.409c.986-1.834 1.556-3.941 1.697-6.181.133-2.106-.115-4.34-.755-6.572a22.779 22.779 0 0 0-2.945-6.326 22.775 22.775 0 0 0-4.703-5.163c-1.813-1.453-3.782-2.546-5.78-3.238-2.121-.734-4.283-1.023-6.354-.824a12.113 12.113 0 0 0-5.592 1.967 12.16 12.16 0 0 0-3.986 4.408c-.985 1.833-1.555 3.94-1.696 6.181-.133 2.106.116 4.341.756 6.573a22.798 22.798 0 0 0 2.944 6.325c.548.825 1.14 1.602 1.766 2.326zm-60.541-16.18l97.922-25.471a.282.282 0 0 1 .352.283c-.075 2.37-.415 5.776-.938 9.833-.578 4.478-1.38 9.737-2.301 15.263a702.455 702.455 0 0 1-4.808 25.769c-1.635 7.905-3.182 14.55-4.263 18.093-.938 3.076-1.62 6.01-2.17 8.84-.547 2.822-.964 5.555-1.371 8.223-.46 3.023-.909 5.965-1.524 8.844-.616 2.885-1.399 5.701-2.527 8.465-1.306 3.199-2.042 7.154-2.489 11.369-.449 4.23-.607 8.719-.757 12.965a555.09 555.09 0 0 1-.147 3.93 151.45 151.45 0 0 1-.194 3.648l-.001.01-.02.186-.006.166v.027c-.105 1.453-.239 2.791-.418 3.961-.181 1.184-.409 2.205-.705 3.02-.236.652-.514 1.188-.816 1.605-.331.461-.696.785-1.075.98a1.845 1.845 0 0 1-1.186.177l-.011-.002a2.581 2.581 0 0 1-.773-.289 3.951 3.951 0 0 1-.748-.553c-.637-.586-1.208-1.422-1.653-2.498-.403-.977-.704-2.156-.855-3.531-.867-7.891-8.148-18.188-12.93-24.943l-.014-.018-.005-.006.001-.002-.002-.002c-1.665-2.354-3.004-4.244-3.521-5.254-.635-1.238-1.281-1.988-1.979-2.311-.67-.307-1.413-.215-2.263.221-1.343.688-1.528 1.793-1.787 3.344v.002c-.131.785-.314 1.881-.71 2.828-.416.998-1.063 1.828-2.119 1.992l-.012.002c-.865.129-1.549-.076-2.089-.494l-.018-.014c-.527-.412-.905-1.025-1.175-1.715-.401-1.027-.631-2.221-.759-3.365a27.72 27.72 0 0 1-.156-3.057c0-1.426-.266-4.127-1.024-7.475a52.804 52.804 0 0 0-2.479-7.961 47.848 47.848 0 0 0-3.48-6.996 41.137 41.137 0 0 0-4.393-5.973c-2.675-3.008-6.34-9.533-10.108-17.069-3.762-7.522-7.629-16.052-10.715-23.087l-.126-.287a816.548 816.548 0 0 1-4.846-11.291h.001c-.005-.013-.01-.025-.013-.039a.282.282 0 0 1 .203-.343zm64.281 41.502c-2.059.293-4.09 1.084-5.978 2.297-1.776 1.143-3.43 2.668-4.847 4.508a22.807 22.807 0 0 0-3.352 6.129 22.801 22.801 0 0 0-1.368 6.768c-.103 2.291.167 4.5.771 6.502l.002.006.04.141c.663 2.135 1.707 4.041 3.089 5.584a12.16 12.16 0 0 0 4.889 3.342l.002.002.04.014c1.925.701 3.928.877 5.903.596 2.059-.293 4.09-1.084 5.978-2.297 1.776-1.141 3.429-2.668 4.847-4.506a22.849 22.849 0 0 0 3.353-6.131 22.806 22.806 0 0 0 1.367-6.766c.103-2.293-.168-4.5-.772-6.502h.001l-.002-.006-.04-.143c-.666-2.141-1.714-4.051-3.104-5.598l.001-.002h-.001a12.15 12.15 0 0 0-4.913-3.34 12.122 12.122 0 0 0-5.906-.598zm-13.66-8.082a24.672 24.672 0 0 0 1.141-7.47 24.932 24.932 0 0 0-1.17-7.543 22.493 22.493 0 0 0-.891-2.324 20.232 20.232 0 0 0-2.453-4.113 16.91 16.91 0 0 0-3.197-3.175 14.24 14.24 0 0 0-3.893-2.094 12.791 12.791 0 0 0-7.297-.324 13.446 13.446 0 0 0-2.966 1.137l-.008.004-.137.073-.015.008a13.27 13.27 0 0 0-.409.229l-.014.008a15.835 15.835 0 0 0-3.375 2.673 18.66 18.66 0 0 0-2.465 3.202 21.19 21.19 0 0 0-1.426 2.771c-.41.962-.759 1.974-1.041 3.024a24.524 24.524 0 0 0-.629 3.177 25.301 25.301 0 0 0-.21 3.266c0 2.64.406 5.163 1.14 7.47.763 2.394 1.881 4.56 3.268 6.383 1.465 1.924 3.229 3.475 5.202 4.531 1.894 1.012 3.982 1.572 6.187 1.572s4.293-.561 6.187-1.572c1.973-1.057 3.737-2.607 5.202-4.531 1.389-1.823 2.506-3.988 3.269-6.382z" fill="#f7d500"/>
      <path d="M184.209 65.414a1.968 1.968 0 1 1 0 3.936 1.968 1.968 0 0 1 0-3.936zm22.265 185.813c-13.36 1.637-15.068-3.287-14.324-7.74a41.825 41.825 0 0 1-5.229 2.355v26.219h39.854c.191 0-.213-.197-.007-.506.221-.33.394-.725.452-1.146a2.102 2.102 0 0 0-.188-1.197c-.572-1.211-2.217-2.516-5.729-3.666-4.185-1.371-4.616-4.703-2.918-9.889.916-2.795 2.514-6.254 4.437-10.422 5.914-12.811 15.043-32.594 15.133-57.303-5.887 22.707-18.502 61.707-31.481 63.295zm-28.46-3.295a2.816 2.816 0 0 1-1.926-.518c-.323 2.764-3.089 22.072-17.588 24.646h22.751v-24.615a34.376 34.376 0 0 1-3.237.487zm-48.321-2.536c-3.231-7.43-7.971-16.441-14.5-26.061-8.071-11.895-18.977-12.051-27.329-9.658 3.944 1.15 29.047 9.521 29.22 36.299.098 15.275-4.154 22.781-10.145 26.084h16.37c.86-8.467 7.164-9.492 11.231-10.152 2.878-.469-3.845-14.207-4.847-16.512zm-77.799-30.832c1.441-4.586 3.4-9.189 5.853-13.721-1.95.793-11.721 3.969-19.277-8.301-.276 6.268.854 12.82 3.806 19.359 1.783 3.951 4.229 7.902 7.427 11.791a66.664 66.664 0 0 1 2.191-9.128zM142.339 162c3.163 3.559 5.378 7.588 6.905 11.391 2.412 6.008 3.104 11.354 3.104 13.438 0 2.074.162 5.484 1.294 8.377 1.41 3.607 4.076 6.338 9.065 5.59 3.401-.51 5.155-2.475 6.128-4.625l1.114 1.576c4.457 6.299 11.259 15.91 11.977 22.441.44 4.014 1.911 7.066 3.809 9.021-4.035-1.385-8.105-6.373-8.933-12.576-1.125-8.438-6.938-7.125-16.688-4.125s-11.438-15.188-18.188-36.563c-5.895-18.666-20.412-28.961-24.583-31.588a82.353 82.353 0 0 0 6.7-16.286c6.031 13.282 13.522 28.56 18.296 33.929zm96.046-51.318c2.391 5.803 5.3 10.098 8.575 10.16 2.333.044 5-4.501 7.389-10.751 1.087-2.842 2.062-6.001 2.894-9.267-3.694 4.368-6.847 4.184-11.253.685-3.161-2.51-8.43-14.565-12.938-26.081-.363.975-.888 1.734-1.563 2.214.094.57.191 1.23.284 1.984.025.127.042.258.049.391l.003.043c.127 1.106.242 2.394.323 3.866.806 7.556 2.842 18.512 6.237 26.756zm-34.877-61.174c2.99.966 9.993 4.069 9.857 11.93l8.589-1.574-.595-1.382c-5.149-7.126-14.378-8.65-17.851-8.974zm-66.32 28.634c-.94-3.119-.668-7.509 1.425-13.5a27.736 27.736 0 0 1-.426-1.521c-2.935 5.646-6.723 12.839-9.713 18.199zm11.958-7.665a1.968 1.968 0 1 1 0 3.936 1.968 1.968 0 0 1 0-3.936zm1.022-6.689a1.969 1.969 0 1 1 0 3.938 1.969 1.969 0 0 1 0-3.938zm5.634 4.345a1.969 1.969 0 1 1 0 3.937 1.969 1.969 0 0 1 0-3.937zm18.693-2.13a1.969 1.969 0 1 1 0 3.938 1.969 1.969 0 0 1 0-3.938zm6.721-6.362a1.968 1.968 0 1 1 .001 3.937 1.968 1.968 0 0 1-.001-3.937z" fill="#d7a461"/>
      <path d="M155.706 155.602s-.293 8.795-4.767 8.564a48.159 48.159 0 0 1 3.554 7.121c.262.652.506 1.299.732 1.938 1.903-1.948 4.496-6.829.481-17.623zm50.251-32.04c-1.461 8.509-3.078 17.458-4.371 22.393l.02-.076c-9.813 9.844-18.9-7.903-18.9-7.903-.525 4.152-.406 7.427.179 10.026 2.686-.822 5.49-.832 8.153.139 3.636 1.322 6.301 4.207 7.763 7.908.157.396.3.803.429 1.217l.041.146c1.204 3.986 1.099 8.775-.601 13.447-1.166 3.201-2.94 5.965-5.063 8.123-1.305 5.5-2.16 19.824-1.617 24.713.552 4.965 2.718 19.455-1.927 21.828.435.379.876.611 1.29.689.344.064.693.016 1.015-.15.663-.342 1.287-1.137 1.756-2.432.576-1.59.897-4.012 1.105-6.902l.007-.195.021-.193c.156-2.303.248-4.885.342-7.568.3-8.506.633-17.98 3.266-24.43 2.243-5.496 3.114-11.205 4.034-17.246.813-5.336 1.666-10.92 3.552-17.102 2.16-7.082 6.194-26.623 9.061-43.826 1.757-10.545 3.077-20.091 3.236-25.058l-8.168 2.125s.22 13.292-1.339 21.272c-.366 1.877-.881 4.87-1.484 8.445.191 1.325.247 2.633.167 3.896-.159 2.452-.818 4.748-1.967 6.714zm-45.799-23.228s-3.656 14.813-15.188 6.844c0 0 1.385 4.465 4.103 7.258a14.885 14.885 0 0 1 1.282-.779l.153-.082c1.916-1.006 4.012-1.559 6.209-1.559.84 0 1.664.081 2.469.236 1.939-4.46 1.703-10.869.972-11.918z" fill="#c6a701"/>
      <path d="M191.28 167.514a2.828 2.828 0 0 1-3.613 1.088l-1.624 2.697.032.018a2.828 2.828 0 0 1 .941 3.887c-.762 1.24-1.509 2.164-2.258 2.873.862-.266 1.718-.67 2.542-1.201 2.549-1.637 4.77-4.416 6.053-7.943 1.202-3.301 1.355-6.625.637-9.412-.17 2.45-.981 5.163-2.71 7.993zm-9.552-62.663a10.354 10.354 0 0 0-.536 2.749c-.192 3.025.732 6.464 2.816 9.596a17.62 17.62 0 0 0 2.892 3.363 15.094 15.094 0 0 0 3.441 2.331c.288.141.577.269.864.385-1.87-1.587-3.574-3.849-4.83-6.923a2.821 2.821 0 0 1 1.145-3.472l-1.309-2.895a2.833 2.833 0 0 1-3.513-1.626c-.543-1.343-.843-2.487-.97-3.508zm-18.012 17.457c.759 2.557.952 5.643.231 9.214a2.823 2.823 0 0 1-4.123 1.923 105.187 105.187 0 0 1-.585 4.228 2.826 2.826 0 0 1 3.202 3.357c-.421 2.058-1.024 3.528-1.761 4.68 1.172-.686 2.24-1.663 3.154-2.863 2.034-2.673 3.293-6.416 3.293-10.591 0-1.419-.139-2.765-.397-4.015a17.836 17.836 0 0 0-1.178-3.663c-.625-1.391-1.411-2.626-2.32-3.654.18.443.342.905.484 1.384z" fill="#921d22"/>
      <path d="M139.253 90.959c-3.938.369-8.094 2.967-10.243 2.907-4.967-.141-1.856.31-6.155 1.243-3.84.833-4.002 2.002-6.383 2.438-1.191.217-2.531.748-3.316 1.165.05.334.127.657.239.963.346.951 1.12 1.798 2.569 2.333l.267-.07.059-.015 104.191-27.102.24-.068.102-.021 6.481-1.686.122-.038.249-.059.229-.059c.14-.742.186-1.747.104-2.842-.067-.925-.226-1.868-.493-2.708-1.116.297-5.331 1.328-6.042 1.707-5.772 3.075-6.554.552-12.195 3.351-4.663 2.313-8.229 2.107-11.022 3.281-3.312 1.392-6.177 1.251-8.352 2.132-1.64.664-7.586 1.983-7.643 2.017-2.761 1.667-5.076 1.452-7.672 2.821-4.213 2.223-10.311 1.259-12.773 2.617-6.943 3.828-7.655.517-11.679 2.344-6.922 3.14-3.229 2.633-10.884 3.349zm72.598 60.674c2.233-7.321 6.346-27.177 9.238-44.535 1.916-11.5 3.296-22.036 3.265-27.447l1.671-.435.147 1.043.003.068c.074 1.323.204 2.856.391 4.541.325 6.786-.14 17.826-3.754 33.568-1.423 6.196-3.118 14.392-4.966 23.324-5.291 25.578-11.89 57.48-16.643 68.332l.04-1.121c.282-8.014.597-16.939 2.867-22.504 2.496-6.115 3.416-12.146 4.389-18.529.793-5.196 1.622-10.635 3.352-16.305z" fill="#9f6724"/>
      <path d="M164.685 60.635a2.674 2.674 0 0 1 .399-.006c2.746-.134 4.6-2.338 5.855-4.914 1.202-2.468 1.886-5.284 2.299-7.337a14.86 14.86 0 0 0-1.628-.145c-1.24-.052-2.741.002-4.366.144-5.585.486-12.061 1.571-12.331 2.471.04.994.874 3.08 2.392 5.186 1.517 2.105 3.67 4.036 6.288 4.491.372.065.737.102 1.092.11zm3.073 5.275c3.952-1.048 6.547-4.167 8.274-7.715 1.854-3.805 2.643-8.067 3.055-10.318.413-2.254-.733-3.736-2.986-4.579-1.105-.413-2.583-.642-4.27-.712-1.562-.065-3.302-.01-5.074.144-7.03.612-15.291 3.125-17.1 6.344a12.606 12.606 0 0 0-5.89 1.2c1.699-5.783 6.506-12.06 18.374-15.75 14.299-4.445 24.728-6.537 32.865-6.118 7.72.397 13.418 3.136 18.597 8.365 5.943 6.001 15.825 14.468 25.026 21.65 8.755 6.833 16.99 12.557 20.852 14.033.67.256.91 3.333.826 7.764-.08 4.225-.703 9.42-1.744 14.727-1.036 5.283-2.483 10.62-4.215 15.146-2.39 6.25-5.056 10.795-7.39 10.751-3.274-.062-6.184-4.357-8.574-10.16-3.396-8.243-5.432-19.2-6.236-26.755a65.434 65.434 0 0 0-.323-3.866l-.003-.043a2.645 2.645 0 0 0-.05-.39 48.993 48.993 0 0 0-.283-1.985c.879-.625 1.503-1.726 1.849-3.157.315-1.304.447-3.053.316-4.836-.132-1.797-.53-3.717-1.271-5.382-.93-2.088-2.33-3.773-4.313-4.522l-3.62-8.407a2.833 2.833 0 1 0-5.205 2.237l2.709 6.29-8.59 1.574c.174-9.973-11.145-12.289-11.181-12.296a2.83 2.83 0 1 0-1.173 5.537c.022.005 7.276 1.492 6.573 7.82l-8.327 1.525c.129-.414.252-.835.366-1.268a2.829 2.829 0 0 0-5.47-1.44c-1.638 6.202-5.377 9.766-9.58 11.415a17.282 17.282 0 0 1-5.525 1.158 17.846 17.846 0 0 1-5.318-.554c-2.82-.745-5.062-2.114-5.971-3.8zm-5.67 4.227c0 .188.02.373.055.551.047 1.493-3.657 4.183-7.914 6.155-2.471 1.144-5.082 1.923-7.306 1.99-1.721.052-3.145-.326-3.861-1.345-1.242-1.766-1.19-5.396 1.167-11.77a2.82 2.82 0 0 0 .014-2.072c-.007-.02-.913-2.278-1.2-5.593a2.72 2.72 0 0 0 .173-.234c.007-.01 2.308-3.6 7.009-3.037a21.528 21.528 0 0 0 2.498 4.553c2.156 2.992 5.31 5.771 9.367 6.664v4.138zm3.413 5.307c-2.06 2.487-5.316 4.875-8.902 6.536-3.09 1.43-6.472 2.407-9.521 2.5-2.42.073-4.643-.394-6.434-1.58l-27.027 9.854c-.178.064.263.756-.116 2.163-.221.821-.383 1.702-.41 2.551-.023.771.059 1.532.305 2.207.346.951 1.12 1.798 2.569 2.333l.267-.07.059-.015 104.19-27.102c.079-.026.159-.049.24-.068l.103-.02 6.48-1.687c.04-.013.08-.026.123-.038.083-.023.166-.043.249-.059l.229-.059c.14-.742.186-1.747.104-2.842-.09-1.22-.336-2.472-.783-3.477-.446-1-1.14-1.717-2.132-1.536l-28.827 5.283c-2.544 3.761-5.953 6.242-9.632 7.685-2.385.936-4.888 1.424-7.342 1.534a23.5 23.5 0 0 1-7.002-.73c-2.628-.696-4.976-1.853-6.79-3.363zm-28.313 2.698l-8.714 3.177c2.99-5.36 6.778-12.553 9.713-18.199.152.607.3 1.117.426 1.521-2.093 5.992-2.365 10.382-1.425 13.501zm39.814 97.528c.306-.104.6-.199.89-.293 1.606-.518 2.969-.957 4.297-3.119a2.828 2.828 0 0 1 4.828 2.946c-.762 1.24-1.51 2.164-2.258 2.873.862-.266 1.718-.67 2.542-1.2 2.549-1.638 4.77-4.417 6.053-7.944 1.202-3.3 1.355-6.625.637-9.412-.17 2.451-.98 5.164-2.71 7.994a2.826 2.826 0 1 1-4.827-2.946c1.236-2.023 1.8-3.883 1.898-5.504.088-1.447-.188-2.695-.673-3.684-.44-.895-1.037-1.56-1.665-1.943a2.149 2.149 0 0 0-.543-.248c-1.188.22-2.378.711-3.511 1.44-2.55 1.638-4.77 4.415-6.053 7.942v.002c-1.27 3.486-1.37 7-.508 9.877.013.033.025.07.036.105.365 1.174.894 2.231 1.567 3.114zm11.267-75.648c-.095.298-.195.597-.293.89-.535 1.6-.988 2.955-.028 5.32a2.833 2.833 0 0 1-5.25 2.126c-.544-1.342-.844-2.486-.971-3.507a10.354 10.354 0 0 0-.536 2.75c-.192 3.024.732 6.463 2.816 9.595a17.62 17.62 0 0 0 2.892 3.363 15.094 15.094 0 0 0 3.44 2.331c.289.141.578.27.865.385-1.87-1.587-3.574-3.849-4.83-6.923a2.821 2.821 0 1 1 5.227-2.126c.896 2.191 2.06 3.747 3.309 4.79 1.106.922 2.273 1.437 3.362 1.633.993.18 1.889.094 2.565-.182.204-.083.376-.179.51-.284.529-1.087.84-2.34.925-3.688.19-3.024-.731-6.46-2.813-9.59l-.003-.006c-2.084-3.13-4.893-5.308-7.748-6.296-1.161-.403-2.325-.602-3.44-.58zm-35.663 45.601c.349-.287.649-.52.942-.749 1.506-1.17 2.782-2.164 3.356-4.973a2.826 2.826 0 0 1 5.537 1.13c-.421 2.057-1.024 3.527-1.761 4.68 1.172-.687 2.24-1.664 3.154-2.864 2.034-2.673 3.293-6.416 3.293-10.59 0-1.42-.14-2.766-.397-4.016a17.836 17.836 0 0 0-1.178-3.663c-.625-1.39-1.411-2.626-2.32-3.654.179.443.34.904.483 1.384.759 2.557.952 5.643.23 9.214a2.823 2.823 0 0 1-5.536-1.108c.522-2.586.4-4.757-.12-6.51-.46-1.552-1.235-2.764-2.14-3.63-.831-.8-1.738-1.289-2.562-1.455a2.45 2.45 0 0 0-.805-.043 6.78 6.78 0 0 0-.272.165c-1.426.896-2.688 2.23-3.698 3.875a16.602 16.602 0 0 0-1.857 4.386 19.525 19.525 0 0 0-.65 5.055c0 4.176 1.259 7.918 3.292 10.591.877 1.15 1.896 2.095 3.009 2.775zm-2.251-31.966c-.29.156-.574.323-.855.5-2.167 1.364-4.05 3.327-5.514 5.713a22.275 22.275 0 0 0-2.5 5.87 25.184 25.184 0 0 0-.85 6.516c0 5.437 1.708 10.398 4.467 14.025 2.923 3.84 7.026 6.215 11.614 6.215 4.589 0 8.69-2.375 11.614-6.215 2.759-3.627 4.466-8.588 4.466-14.025 0-1.75-.185-3.477-.53-5.145a23.414 23.414 0 0 0-1.554-4.837c-1.368-3.047-3.351-5.604-5.74-7.398-2.421-1.819-5.24-2.859-8.256-2.859-2.197 0-4.293.553-6.21 1.56-.05.025-.102.051-.152.08zm-92.541 87.064c-3.984-4.66-13.227-19.016-1.571-42.289a48.705 48.705 0 0 0-3.603 3.24c-6.071 6.027-10.82 13.854-12.966 22.555-2.132 8.643-1.687 18.172 2.602 27.676 1.783 3.951 4.229 7.902 7.427 11.791a66.754 66.754 0 0 1 2.19-9.129c1.456-4.628 3.437-9.274 5.92-13.844zm9.157-49.223c-16.576 23.77-10.127 38.39-6.093 44.025 6.943-10.902 16.796-21.15 29.254-29.389 24.247-16.037 29.36-41.893 30.105-46.599a770.58 770.58 0 0 1-5.078-11.852l-.01-.002c-3.968-1.07-6.084-3.373-7.071-6.082-.51-1.396-.681-2.87-.636-4.31a16.87 16.87 0 0 1 .586-3.836c.838-3.106 2.884-5.734 3.659-6.016l8.653-3.155c2.327-3.18 15.053-28.032 17.166-32.167 1.076-8.096 6.214-17.787 22.973-22.996 14.929-4.64 25.957-6.818 34.814-6.362 9.273.478 16.11 3.76 22.316 10.026 5.8 5.857 15.475 14.144 24.496 21.185 8.347 6.515 16.044 11.913 19.39 13.191 3.24 1.24 4.587 6.34 4.458 13.146-.087 4.62-.742 10.164-1.833 15.723-1.095 5.584-2.633 11.246-4.48 16.076-3.208 8.393-7.595 14.48-12.771 14.383-6.033-.114-10.51-5.88-13.713-13.659-.842-2.044-1.604-4.24-2.291-6.509-.6 4.054-1.424 8.51-2.541 13.378a576.462 576.462 0 0 0-1.873 8.496c31.76 53.85 11.885 96.928 1.507 119.411-1.85 4.004-3.383 7.328-4.193 9.801-.568 1.736-.843 2.715-.714 2.756 5.238 1.717 7.927 4.162 9.095 6.637a7.663 7.663 0 0 1 .676 4.385 8.5 8.5 0 0 1-1.36 3.516c-1.235 1.848-3.201 3.03-4.687 3.03H106.142v-.009c-18.155.633-31.746-3.463-41.125-10.559-7.927-5.998-12.826-14.102-14.924-23.307-.912-4-1.29-8.2-1.151-12.52-5.352-5.57-9.22-11.329-11.827-17.106-4.853-10.752-5.352-21.549-2.934-31.354 2.404-9.744 7.703-18.49 14.472-25.21 4.442-4.413 9.523-7.964 14.84-10.362l.003.006a2.822 2.822 0 0 1 3.475 4.19zm8.432 64.168c.07-.053 24.812-18.404 39.79 3.67 6.528 9.62 11.268 18.631 14.5 26.061 1.002 2.305 7.725 16.043 4.847 16.512-4.068.66-10.371 1.686-11.231 10.152h-17.166v.01h-.1c-16.792.6-29.201-3.06-37.615-9.428-6.808-5.15-11.017-12.113-12.82-20.027-1.838-8.064-1.208-17.15 1.69-26.367 5.169-16.443 17.523-33.205 35.957-45.396 19.579-12.95 27.629-31.887 30.789-42.78 6.03 13.282 13.52 28.56 18.295 33.93 3.163 3.558 5.378 7.587 6.905 11.39 2.412 6.008 3.104 11.354 3.104 13.438 0 2.074.162 5.484 1.294 8.377 1.41 3.607 4.076 6.338 9.065 5.59 3.4-.51 5.155-2.475 6.128-4.625.352.5.725 1.027 1.114 1.576 4.457 6.3 11.259 15.91 11.977 22.441.472 4.293 2.122 7.488 4.213 9.418 1.256 1.158 2.69 1.89 4.172 2.166a7.132 7.132 0 0 0 4.646-.682c1.876-.967 3.49-2.799 4.48-5.53.673-1.86 1.065-4.31 1.318-7.128 8.45-7.012 16.39-45.39 22.627-75.542.443-2.142.878-4.24 1.303-6.284 25.779 48.732 7.729 87.851-1.863 108.628-1.923 4.168-3.521 7.627-4.437 10.422-1.698 5.186-1.267 8.518 2.918 9.89 3.513 1.15 5.157 2.454 5.729 3.665.195.416.24.824.188 1.197a2.776 2.776 0 0 1-.452 1.146c-.206.31-.258.506-.45.506h-39.396v-26.219c11.166-4.119 18.116-12.43 18.142-12.459a2.827 2.827 0 1 0-4.296-3.675c-.027.031-9.355 11.186-23.307 12.6a2.827 2.827 0 0 0 .554 5.625 34.101 34.101 0 0 0 3.237-.486v24.615h-52.118c.979-3.705 4.55-4.285 6.77-4.646 1.392-.227 2.49-.404 3.395-1.043 4.238-2.023 1.094-10.547-4.424-23.232-3.34-7.678-8.245-17.002-15.01-26.97-18.3-26.97-47.698-5.149-47.783-5.089a2.831 2.831 0 0 0 3.32 4.583zm50.264-97.797c.047.092.089.188.125.286 6.172 14.07 15.46 34.101 20.776 40.082 3.639 4.094 6.18 8.707 7.924 13.051 2.739 6.82 3.523 13.072 3.523 15.541 0 1.648.112 4.314.896 6.318.506 1.293 1.398 2.283 2.976 2.047 1.883-.283 2.346-3.049 2.604-4.59.273-1.633.468-2.799 1.938-3.55 1.862-.956 3.29-.384 4.622 2.212.51.994 1.844 2.881 3.505 5.227 4.798 6.78 12.119 17.125 12.995 25.096.309 2.813 1.25 4.775 2.419 5.854.465.428.938.688 1.382.771.344.064.693.016 1.015-.15.663-.342 1.287-1.137 1.756-2.432.576-1.59.897-4.012 1.105-6.902a3.176 3.176 0 0 1 .028-.388c.156-2.303.248-4.885.342-7.568.3-8.506.633-17.98 3.266-24.43 2.243-5.496 3.114-11.205 4.034-17.246.813-5.336 1.666-10.92 3.552-17.102 2.16-7.082 6.194-26.623 9.06-43.826 1.758-10.545 3.078-20.09 3.237-25.058l-97.921 25.471a796.875 796.875 0 0 0 4.84 11.286zM184.48 45.26c.016-.009 5.484-3.23 11.049.37a2.826 2.826 0 0 0 3.079-4.74c-8.51-5.502-16.938-.538-16.962-.524a2.827 2.827 0 1 0 2.834 4.894zm42.085 39.608a85.68 85.68 0 0 1-.391-4.54l-.003-.069a41.278 41.278 0 0 0-.147-1.043l-1.671.435c.03 5.411-1.35 15.946-3.265 27.447-2.893 17.358-7.005 37.214-9.238 44.535-1.73 5.67-2.56 11.11-3.352 16.305-.973 6.383-1.893 12.414-4.39 18.53-2.27 5.563-2.584 14.49-2.866 22.503l-.04 1.121c4.753-10.852 11.352-42.754 16.643-68.332 1.848-8.933 3.543-17.128 4.966-23.324 3.614-15.742 4.079-26.782 3.754-33.568zm-71.661-33.96v-.03l-.005.03zm36.132 97.233c4.025 1.465 6.86 4.844 8.19 9.125.017.05.029.098.042.146 1.204 3.986 1.099 8.775-.601 13.447-1.723 4.73-4.773 8.504-8.313 10.777-3.771 2.424-8.113 3.191-12.133 1.73l-.04-.017c-4.003-1.473-6.825-4.844-8.151-9.109a2.141 2.141 0 0 1-.041-.146c-1.204-3.986-1.1-8.775.6-13.445v-.002c1.723-4.73 4.773-8.504 8.314-10.779 3.77-2.423 8.113-3.19 12.133-1.727zm11.07-20.485l.005-.002c3.565-2.373 5.524-6.33 5.809-10.806.266-4.198-.962-8.887-3.746-13.072h-.001c-2.786-4.187-6.644-7.132-10.627-8.51-4.24-1.467-8.64-1.192-12.193 1.173-3.566 2.374-5.525 6.33-5.81 10.807-.265 4.198.963 8.888 3.748 13.072a23.302 23.302 0 0 0 3.844 4.448c1.492 1.338 3.09 2.418 4.726 3.216 1.88.918 3.85 1.49 5.81 1.676 1.979.19 3.925-.018 5.738-.657a12.39 12.39 0 0 0 1.398-.588c.428-.213.863-.466 1.3-.757z" fill="#250c03"/>
      <ellipse cx="288.874" cy="214.809" fill="#f2b6b3" rx="2.505" ry="4.772" transform="rotate(-115.056 168.443 183.292)"/>
      <ellipse cx="339.896" cy="204.697" fill="#f2b6b3" rx="3.525" ry="6.714" transform="rotate(-90.275 191.85 198.813)"/>
    </g>
    <path d="M160.62 49.291s-4.77-.184-5.059 3.16" fill="none" stroke="#d59d54" stroke-width="2.835" stroke-linecap="round" stroke-linejoin="round" stroke-miterlimit="22.926"/>
  </g>
  <g transform="matrix(.61464 0 0 -.61464 -133.212 348.874)">
    <linearGradient id="a" gradientUnits="userSpaceOnUse" x1="550.943" y1="-16.914" x2="554.043" y2="-16.914" gradientTransform="matrix(90 0 0 -90 -49225.598 -1256.101)">
      <stop offset="0" stop-color="#444"/>
      <stop offset="1"/>
    </linearGradient>
    <path fill="url(#a)" d="M359.293 280.162V252.27c0-4.702 101.439-12.576 167.528-27.893 31.926 7.402 55.61 16.534 55.61 27.893v27.892c0 11.351-23.684 20.493-55.61 27.892-66.089-15.319-167.528-23.195-167.528-27.892"/>
    <linearGradient id="b" gradientUnits="userSpaceOnUse" x1="550.943" y1="-17.754" x2="554.043" y2="-17.754" gradientTransform="matrix(90 0 0 -90 -49225.598 -1220.101)">
      <stop offset="0" stop-color="#444"/>
      <stop offset="1"/>
    </linearGradient>
    <path fill="url(#b)" d="M359.293 391.731v-27.893c0-4.702 101.439-12.576 167.528-27.892 31.926 7.399 55.61 16.534 55.61 27.892v27.893c0 11.352-23.684 20.492-55.61 27.892-66.089-15.319-167.528-23.195-167.528-27.892"/>
    <linearGradient id="c" gradientUnits="userSpaceOnUse" x1="550.943" y1="-17.334" x2="554.043" y2="-17.334" gradientTransform="matrix(90 0 0 -90 -49225.598 -1238.101)">
      <stop offset="0" stop-color="#a61214"/>
      <stop offset="1" stop-color="#d82023"/>
    </linearGradient>
    <path fill="url(#c)" d="M359.293 335.946V252.27c0 6.973 223.138 20.919 223.138 55.784v83.677c0-34.865-223.138-48.811-223.138-55.785"/>
    <g>
      <g transform="translate(-1.436 -.385)">
        <linearGradient id="d" gradientUnits="userSpaceOnUse" x1="550.943" y1="-18.174" x2="554.043" y2="-18.174" gradientTransform="matrix(90 0 0 -90 -49225.598 -1202.101)">
          <stop offset="0" stop-color="#a61214"/>
          <stop offset="1" stop-color="#d82023"/>
        </linearGradient>
        <path fill="url(#d)" d="M359.293 447.516v-83.677c0 6.973 223.138 20.92 223.138 55.785V503.3c0-34.866-223.138-48.812-223.138-55.784"/>
      </g>
    </g>
    <g>
      <linearGradient id="e" gradientUnits="userSpaceOnUse" x1="550.943" y1="-16.494" x2="554.043" y2="-16.494" gradientTransform="matrix(90 0 0 -90 -49225.598 -1274.101)">
        <stop offset="0" stop-color="#a61214"/>
        <stop offset="1" stop-color="#d82023"/>
      </linearGradient>
      <path fill="url(#e)" d="M359.293 224.377V140.7c0 6.973 223.138 20.92 223.138 55.784v83.677c0-34.865-223.138-48.811-223.138-55.784"/>
    </g>
  </g>
</svg>